<svg width="1440" height="294" viewBox="0 0 1440 294" fill="none" xmlns="http://www.w3.org/2000/svg">
<rect x="72" y="60" width="1296" height="174" rx="40" fill="#FAFAFA"/>
<g clip-path="url(#clip0_5_2077)">
<path d="M153 120.373C130.568 120.373 112.379 132.294 112.379 146.995C112.379 161.701 130.568 173.627 153 173.627C175.433 173.627 193.621 161.706 193.621 146.995C193.621 132.283 175.433 120.373 153 120.373ZM153 162.198C149.664 162.198 146.941 155.54 146.77 147.162C148.777 147.341 150.865 147.438 153 147.438C155.136 147.438 157.223 147.341 159.23 147.162C159.059 155.535 156.337 162.198 153 162.198ZM147.181 140.51C148.089 134.587 150.352 130.385 153 130.385C155.648 130.385 157.912 134.587 158.819 140.51C156.956 140.677 155.013 140.769 153 140.769C150.987 140.769 149.044 140.677 147.181 140.51ZM153 124.224C148.644 124.224 144.928 130.834 143.556 140.061C135.298 138.757 129.532 135.782 129.532 132.326C129.532 127.664 140.038 123.883 153 123.883C165.962 123.883 176.468 127.664 176.468 132.326C176.468 135.782 170.703 138.757 162.444 140.061C161.072 130.834 157.356 124.224 153 124.224ZM118.203 145.999C118.203 141.489 119.917 137.254 122.901 133.619C122.869 133.873 122.848 134.133 122.848 134.392C122.848 140.077 131.262 144.923 143.001 146.708C142.99 147.119 142.99 147.535 142.99 147.952C142.99 158.547 145.921 167.52 149.973 170.565C132.169 169.478 118.203 158.894 118.203 145.999ZM156.027 170.565C160.079 167.52 163.01 158.547 163.01 147.952C163.01 147.53 163.005 147.119 162.999 146.708C174.733 144.923 183.152 140.082 183.152 134.392C183.152 134.133 183.131 133.873 183.099 133.619C186.083 137.264 187.797 141.489 187.797 145.999C187.797 158.894 173.831 169.478 156.027 170.565Z" fill="black"/>
</g>
<path d="M424.467 156.065C424.493 156.229 424.708 156.385 424.915 156.46C424.992 156.485 425.029 156.536 424.949 156.71C424.357 157.981 423.812 158.714 423.069 159.819C422.386 160.839 421.616 161.635 420.684 162.401C419.278 163.566 417.326 164.833 415.713 163.981C414.996 163.609 414.686 162.604 414.699 161.792C414.733 159.506 415.75 157.159 417.626 154.853C419.913 152.034 422.441 150.573 424.101 151.372C425.818 152.191 425.27 154.181 424.501 155.742C424.441 155.863 424.441 155.965 424.467 156.064M442.891 138.254C443.014 138.036 442.884 137.876 442.609 137.876C441.175 137.876 439.293 137.88 437.799 137.88C437.443 137.88 437.26 137.922 437.092 138.255C436.54 139.312 429.819 149.393 428.568 151.351C428.357 151.649 428.1 151.608 428.07 151.266C427.943 150.103 426.94 148.766 425.359 148.127C424.155 147.638 422.977 147.549 421.752 147.712C419.542 148.009 417.572 149.176 415.841 150.493C413.231 152.478 410.98 155.052 408.073 156.953C406.487 157.988 404.314 158.891 402.86 157.544C401.544 156.323 401.693 153.611 403.706 151.514C403.918 151.294 404.173 151.479 404.133 151.674C403.943 152.623 404.175 153.566 404.895 154.228C405.773 155.016 407.031 155.105 408.106 154.579C409.376 153.949 410.122 152.733 410.339 151.354C410.676 149.213 409.03 147.326 406.97 147.174C405.296 147.057 403.692 147.639 402.128 148.931C401.344 149.582 400.899 150.063 400.221 151.028C400.056 151.265 399.802 151.289 399.81 150.938C399.886 148.198 398.755 146.656 396.492 146.606C394.735 146.563 392.858 147.518 391.395 148.685C389.791 149.974 388.388 151.683 386.885 153.288C386.698 153.486 386.535 153.476 386.482 153.093C386.44 151.277 385.981 149.519 385.141 148.27C384.844 147.835 384.219 147.621 383.694 147.914C383.451 148.047 382.607 148.435 381.993 148.93C381.688 149.182 381.569 149.546 381.704 150.012C382.514 152.724 382.336 155.808 381.237 158.413C380.227 160.799 378.265 162.95 375.958 163.679C374.439 164.161 372.86 163.925 371.882 162.577C370.54 160.716 371.082 157.48 373.083 154.794C374.849 152.428 377.403 150.925 379.951 149.957C380.25 149.842 380.312 149.649 380.227 149.394C380.089 148.975 379.868 148.404 379.779 148.144C379.545 147.521 378.891 147.42 378.092 147.507C376.24 147.723 374.571 148.358 372.921 149.242C368.602 151.557 366.436 156.037 365.487 158.434C365.03 159.585 364.639 160.304 364.134 160.94C363.453 161.797 362.599 162.577 361.036 163.951C360.894 164.077 360.789 164.339 360.908 164.584C361.067 164.914 361.88 166.063 362.109 166.166C362.364 166.291 362.659 166.115 362.778 166.031C363.871 165.289 365.18 164.113 365.82 163.315C366.045 163.042 366.275 163.157 366.395 163.572C366.992 165.706 368.557 167.448 370.721 168.177C374.681 169.513 378.789 167.578 381.89 164.21C383.86 162.069 384.571 160.692 385.327 159.756C386.607 158.169 389.132 154.618 392.139 152.338C393.242 151.497 394.548 150.856 395.204 151.281C395.731 151.623 395.901 152.417 395.056 153.955C391.989 159.56 387.478 166.144 386.65 167.741C386.499 168.018 386.633 168.236 386.921 168.236C388.526 168.228 390.116 168.232 391.573 168.232C391.815 168.223 391.924 168.109 392.045 167.938C394.399 164.251 396.613 160.742 398.987 157.114C399.12 156.901 399.242 157.063 399.247 157.157C399.298 157.999 399.503 159.15 400.002 159.906C400.9 161.303 402.171 161.904 403.581 161.913C404.704 161.93 405.271 161.756 406.481 161.303C407.466 160.938 408.256 160.458 408.863 160.024C409.217 159.777 409.279 160.19 409.271 160.253C408.726 163.18 409.398 166.648 412.305 168.086C415.783 169.802 419.604 167.39 421.803 165.212C422.018 165.002 422.249 165.024 422.271 165.477C422.322 166.308 422.693 167.295 423.38 167.985C425.223 169.836 428.941 169.103 432.672 166.212C435.067 164.362 437.574 161.747 439.838 158.978C439.923 158.871 439.984 158.699 439.821 158.524C439.476 158.163 438.977 157.75 438.636 157.432C438.48 157.299 438.251 157.337 438.12 157.436C435.799 159.645 433.71 162.165 430.69 164.248C429.672 164.959 428.049 165.533 427.32 164.545C427.036 164.162 427.068 163.632 427.346 162.936C428.226 160.739 442.164 139.5 442.887 138.248" fill="black"/>
<path d="M377.315 140.817C377.375 141.132 377.497 141.193 377.64 141.167C378.35 141.025 379.127 140.44 379.587 139.763C380.006 139.148 380.203 138.262 379.786 137.907C379.415 137.587 378.811 137.678 378.363 138.074C377.471 138.863 377.2 139.982 377.315 140.817M341.791 168.156C336.594 168.19 332.015 164.978 331.49 159.414C331.198 156.33 332.069 153.582 333.812 151.318C335.359 149.301 337.977 147.625 340.193 147.215C340.914 147.083 341.883 147.164 342.283 147.645C342.911 148.376 342.731 149.18 342.103 149.501C340.412 150.365 338.378 151.844 337.371 153.863C336.555 155.511 336.39 157.498 337.637 159.39C339.724 162.544 345.542 162.63 350.951 157.601C352.29 156.37 353.489 155.187 354.707 153.786C357.09 151.06 357.882 150.067 361.049 145.67C361.083 145.619 361.1 145.553 361.083 145.52C361.058 145.461 361.015 145.452 360.921 145.444C358.807 145.503 356.963 146.133 355.172 147.473C354.656 147.849 353.913 147.797 353.588 147.301C353.227 146.74 353.486 146.01 354.081 145.598C356.963 143.592 360.111 143.228 363.327 142.685C363.324 142.685 363.55 142.694 363.733 142.452C365.053 140.757 366.05 139.227 367.457 137.513C368.874 135.774 370.705 134.176 372.104 132.976C374.057 131.296 375.31 130.73 376.583 130.037C376.918 129.862 376.54 129.652 376.438 129.652C369.332 128.315 361.945 126.586 354.888 129.201C350 131.026 347.858 134.905 348.889 137.497C349.622 139.336 352.038 139.635 354.3 138.527C356.179 137.606 357.917 136.121 359.15 134.209C359.839 133.148 361.292 133.914 360.507 135.757C358.442 140.615 354.497 144.469 349.691 144.631C345.601 144.764 342.962 141.753 342.971 138.038C342.988 130.71 351.138 125.883 359.704 125.161C370.02 124.308 379.791 127.058 390.033 128.302C397.881 129.253 405.405 129.273 413.293 127.459C414.225 127.256 414.88 127.852 414.819 128.794C414.742 130.157 413.687 131.469 411.09 132.887C408.135 134.509 405.044 135.001 401.816 135.028C394.01 135.096 386.738 132.047 379.214 130.411C379.222 130.741 379.309 131.133 379.034 131.341C374.866 134.418 371.098 137.543 368.575 141.931C368.49 142.033 368.532 142.129 368.683 142.119C370.874 142.002 372.844 141.946 374.889 141.782C375.247 141.748 375.26 141.663 375.229 141.402C375.047 139.89 375.489 138.165 376.819 136.978C378.179 135.757 379.883 135.618 381.013 136.498C382.297 137.499 382.183 139.3 381.481 140.651C380.766 142.021 379.585 142.754 378.451 143.11C378.451 143.11 378.213 143.161 378.249 143.377C378.291 143.723 379.838 144.58 379.97 144.808C380.097 145.025 380.029 145.362 379.797 145.62C379.633 145.807 379.377 145.983 379.049 145.977C378.785 145.972 378.624 145.88 378.285 145.697C377.592 145.321 376.726 144.703 376.149 143.975C375.952 143.729 375.851 143.724 375.36 143.751C373.147 143.879 369.696 144.213 367.358 144.505C366.791 144.573 366.708 144.681 366.591 144.878C362.863 151.031 358.883 157.665 354.513 162.107C349.825 166.87 345.929 168.124 341.793 168.157" fill="black"/>
<path fill-rule="evenodd" clip-rule="evenodd" d="M619.025 124.259C627.343 128.554 633.025 137.117 633.025 146.987C633.025 156.858 627.343 165.448 619.025 169.716V166.782C622.206 164.913 624.897 162.299 626.855 159.205L619.025 156.084V151.335L627.615 157.925C629.409 154.67 630.415 150.962 630.415 146.986C630.415 138.61 625.848 131.247 619.025 127.192V124.259ZM606.928 121.351C611.277 121.351 615.382 122.391 619.025 124.259V127.193C615.681 125.218 611.766 124.045 607.634 123.912L610.624 144.907L619.025 151.336V156.085L606.873 151.256L594.802 156.111V151.389L603.257 144.906L606.22 123.911C602.033 124.045 598.146 125.218 594.802 127.192V124.259C598.418 122.391 602.55 121.351 606.928 121.351ZM619.025 169.716C615.382 171.583 611.277 172.65 606.928 172.65C602.551 172.65 598.419 171.583 594.803 169.743V166.782C598.337 168.888 602.496 170.089 606.928 170.089C611.332 170.089 615.464 168.888 619.025 166.782V169.716ZM594.803 169.743C586.457 165.448 580.775 156.858 580.775 146.987C580.775 137.117 586.457 128.554 594.803 124.259V127.193C587.952 131.248 583.385 138.584 583.385 146.987C583.385 150.962 584.418 154.724 586.212 157.978L594.803 151.389V156.111L587 159.258C588.958 162.327 591.622 164.914 594.803 166.782V169.743Z" fill="black"/>
<g clip-path="url(#clip1_5_2077)">
<path d="M860.504 148.489C860.416 153.384 861.472 155.977 865.503 155.977C869.527 155.977 870.104 151.56 870.104 148.199C870.104 144.836 869.341 141.571 865.113 141.571C862.519 141.571 860.604 143.589 860.504 148.489ZM852.35 168.945V135.809H860.604C860.604 135.809 860.604 136.289 860.604 137.153C860.604 138.946 861.326 138.207 861.908 137.508C862.006 137.391 863.845 135.137 867.989 135.137C872.119 135.137 878.545 138.018 878.545 148.199C878.545 156.075 874.711 161.837 868.09 161.837C864.442 161.837 862.333 160.399 861.851 159.818C861.368 159.246 860.697 159.146 860.697 159.818C860.697 160.492 860.697 168.945 860.697 168.945H852.35" fill="black"/>
<path d="M788.552 125.055H797.475C797.475 125.055 797.475 144.454 797.475 148.489C797.475 152.52 795.746 160.974 783.372 160.974C770.997 160.974 769.655 153.094 769.655 148.68V144.358H778.289C778.289 144.358 778.289 145.991 778.289 148.582C778.289 151.175 780.017 153.575 783.276 153.575C786.538 153.575 788.552 151.751 788.552 148.68C788.552 145.606 788.552 125.055 788.552 125.055Z" fill="black"/>
<path d="M816.133 144.934C816.133 142.531 814.793 140.226 811.723 140.226C808.749 140.226 807.693 142.337 807.693 144.934H816.133ZM810.862 134.849C817.869 134.849 824.006 137.537 824.006 149.927H807.411C807.411 153.865 809.04 155.498 811.918 155.498C814.797 155.498 815.756 153.191 815.756 153.191H823.913C823.913 156.746 819.019 161.548 811.63 161.453C803.191 161.453 799.065 155.21 799.065 148.774C799.065 142.337 802.708 134.849 810.862 134.849" fill="black"/>
<path d="M842.663 144.934C842.663 142.531 841.321 140.226 838.251 140.226C835.278 140.226 834.22 142.337 834.22 144.934H842.663ZM837.392 134.849C844.398 134.849 850.534 137.537 850.534 149.927H833.939C833.939 153.865 835.57 155.498 838.45 155.498C841.326 155.498 842.286 153.191 842.286 153.191H850.443C850.443 156.746 845.549 161.548 838.162 161.453C829.718 161.453 825.592 155.21 825.592 148.774C825.592 142.337 829.24 134.849 837.392 134.849" fill="black"/>
<path d="M873.082 164.973C873.082 163.66 874.149 162.594 875.464 162.594C876.775 162.594 877.84 163.66 877.84 164.973C877.84 166.283 876.775 167.356 875.464 167.356C874.149 167.356 873.082 166.283 873.082 164.973ZM872.807 164.973C872.807 166.441 873.994 167.633 875.464 167.633C876.924 167.633 878.118 166.441 878.118 164.973C878.118 163.504 876.924 162.313 875.464 162.313C873.994 162.313 872.807 163.504 872.807 164.973" fill="black"/>
<path d="M876.531 166.333L875.979 165.029C876.154 164.968 876.212 164.925 876.305 164.826C876.426 164.695 876.503 164.49 876.503 164.304C876.503 163.833 876.141 163.513 875.618 163.513H874.51V166.333H874.839V165.112H875.639L876.165 166.333H876.531ZM874.83 164.826V163.82H875.611C875.938 163.82 876.145 164.006 876.145 164.295C876.145 164.622 875.925 164.826 875.565 164.826H874.83Z" fill="black"/>
</g>
<g clip-path="url(#clip2_5_2077)">
<path d="M1041.3 120C1026.11 120 1013.8 132.089 1013.8 147C1013.8 161.911 1026.11 174 1041.3 174C1056.49 174 1068.8 161.911 1068.8 147C1068.8 132.089 1056.49 120 1041.3 120ZM1041.3 121.755C1055.5 121.755 1067.01 133.057 1067.01 147C1067.01 160.941 1055.5 172.243 1041.3 172.243C1027.1 172.243 1015.59 160.941 1015.59 147C1015.59 133.059 1027.1 121.755 1041.3 121.755ZM1039.75 123.172C1038.99 123.204 1038.23 123.267 1037.47 123.348L1037.23 129.972C1037.77 129.882 1038.31 129.812 1038.85 129.76L1039.02 125.287L1038.99 124.979L1039.08 125.272L1040.61 128.622H1041.99L1043.52 125.274L1043.61 124.979L1043.58 125.287L1043.75 129.76C1044.28 129.81 1044.83 129.882 1045.37 129.972L1045.12 123.348C1044.37 123.264 1043.61 123.206 1042.85 123.172L1041.35 126.829L1041.3 127.099L1041.25 126.829L1039.75 123.172ZM1055.09 127.276L1051.56 132.74C1052 133.077 1052.59 133.574 1052.97 133.914L1056.3 132.217L1056.51 132.062L1056.35 132.274L1054.63 135.543C1055 135.937 1055.54 136.574 1055.84 136.961L1061.41 133.486C1061.07 133.053 1060.72 132.627 1060.36 132.209L1056.83 134.49L1056.59 134.697L1056.77 134.438L1058.33 131.387L1057.23 130.307L1054.12 131.837L1053.86 132.013L1054.06 131.774L1056.4 128.312C1055.99 127.97 1055.59 127.657 1055.09 127.276ZM1026.4 128.516C1025.58 128.6 1024.94 129.153 1023.21 131.047C1022.61 131.715 1022.03 132.401 1021.48 133.104L1026.23 137.53C1027.8 135.82 1028.44 135.185 1029.69 133.9C1030.56 132.989 1031.06 131.943 1030.18 130.937C1029.7 130.393 1028.9 130.273 1028.23 130.543L1028.17 130.566L1028.19 130.508C1028.27 130.209 1028.27 129.893 1028.17 129.599C1028.07 129.306 1027.88 129.047 1027.63 128.856C1027.46 128.723 1027.27 128.624 1027.05 128.566C1026.84 128.508 1026.62 128.49 1026.4 128.516ZM1026.42 129.9C1026.73 129.817 1027.05 130.035 1027.12 130.35C1027.2 130.665 1027 130.962 1026.77 131.209C1026.27 131.772 1024.41 133.68 1024.41 133.68L1023.49 132.818C1024.44 131.671 1025.46 130.627 1025.92 130.213C1026.06 130.071 1026.23 129.964 1026.42 129.9ZM1041.3 130.987C1037.26 130.985 1033.37 132.454 1030.37 135.109C1027.37 137.764 1025.49 141.417 1025.08 145.36V145.364C1024.82 147.866 1025.16 150.392 1026.08 152.739C1027 155.086 1028.47 157.187 1030.37 158.873C1032.27 160.559 1034.55 161.782 1037.02 162.444C1039.49 163.106 1042.08 163.188 1044.59 162.682C1048.27 161.94 1051.57 159.974 1053.94 157.117C1056.32 154.26 1057.61 150.686 1057.61 147C1057.6 142.755 1055.88 138.685 1052.83 135.684C1049.77 132.683 1045.62 130.995 1041.3 130.991V130.987ZM1028.61 131.531C1028.72 131.531 1028.83 131.561 1028.93 131.628C1029.13 131.761 1029.23 131.988 1029.17 132.213C1029.12 132.481 1028.89 132.733 1028.71 132.928L1026.31 135.449L1025.35 134.549C1025.35 134.549 1027.15 132.677 1027.74 132.076C1027.98 131.837 1028.13 131.693 1028.29 131.615C1028.39 131.564 1028.5 131.535 1028.61 131.531ZM1041.3 133.09C1043.16 133.088 1045 133.447 1046.72 134.145C1048.44 134.843 1050.01 135.868 1051.32 137.16C1052.64 138.452 1053.68 139.986 1054.39 141.675C1055.1 143.363 1055.47 145.173 1055.47 147H1041.3V160.909C1039.44 160.912 1037.6 160.553 1035.88 159.855C1034.16 159.157 1032.59 158.132 1031.28 156.84C1029.96 155.548 1028.92 154.014 1028.21 152.325C1027.5 150.637 1027.13 148.827 1027.13 147H1041.3V133.09Z" fill="black"/>
</g>
<path d="M1225.51 128.471C1220.53 128.633 1215.82 130.697 1212.39 134.219C1208.96 137.741 1207.08 142.439 1207.17 147.299C1207.25 152.159 1209.29 156.792 1212.84 160.201C1216.39 163.609 1221.16 165.519 1226.14 165.519C1231.12 165.519 1235.9 163.609 1239.45 160.201C1243 156.792 1245.04 152.159 1245.12 147.299C1245.2 142.439 1243.33 137.741 1239.9 134.219C1236.46 130.697 1231.75 128.633 1226.78 128.471H1225.51ZM1252.08 128.471C1247.11 128.633 1242.39 130.697 1238.96 134.219C1235.53 137.741 1233.66 142.439 1233.74 147.299C1233.82 152.159 1235.86 156.792 1239.41 160.201C1242.96 163.609 1247.74 165.519 1252.72 165.519C1257.69 165.519 1262.47 163.609 1266.02 160.201C1269.57 156.792 1271.61 152.159 1271.69 147.299C1271.78 142.439 1269.9 137.741 1266.47 134.219C1263.04 130.697 1258.32 128.633 1253.35 128.471H1252.08ZM1278.65 128.471C1273.68 128.633 1268.97 130.697 1265.53 134.219C1262.1 137.741 1260.23 142.439 1260.31 147.299C1260.39 152.159 1262.43 156.792 1265.98 160.201C1269.53 163.609 1274.31 165.519 1279.29 165.519C1284.27 165.519 1289.04 163.609 1292.59 160.201C1296.14 156.792 1298.18 152.159 1298.26 147.299C1298.35 142.439 1296.47 137.741 1293.04 134.219C1289.61 130.697 1284.9 128.633 1279.92 128.471H1278.65ZM1305.23 128.471C1300.25 128.633 1295.54 130.697 1292.11 134.219C1288.67 137.741 1286.8 142.439 1286.88 147.299C1286.96 152.159 1289 156.792 1292.55 160.201C1296.1 163.609 1300.88 165.519 1305.86 165.519C1310.84 165.519 1315.62 163.609 1319.17 160.201C1322.72 156.792 1324.75 152.159 1324.83 147.299C1324.92 142.439 1323.04 137.741 1319.61 134.219C1316.18 130.697 1311.47 128.633 1306.49 128.471H1305.23Z" stroke="black" stroke-width="2.88235"/>
<defs>
<clipPath id="clip0_5_2077">
<rect width="82" height="54" fill="white" transform="translate(112 120)"/>
</clipPath>
<clipPath id="clip1_5_2077">
<rect width="109" height="44" fill="white" transform="translate(769.6 125)"/>
</clipPath>
<clipPath id="clip2_5_2077">
<rect width="55" height="54" fill="white" transform="translate(1013.8 120)"/>
</clipPath>
</defs>
</svg>
