<svg width="24" height="24" viewBox="0 0 24 24" fill="none" xmlns="http://www.w3.org/2000/svg">
<path d="M12.0174 0H11.9628C5.35242 0 -0.00634766 5.36035 -0.00634766 11.9727V12.0273C-0.00634766 18.6397 5.35242 24 11.9628 24H12.0174C18.6278 24 23.9866 18.6397 23.9866 12.0273V11.9727C23.9866 5.36035 18.6278 0 12.0174 0Z" fill="black"/>
<path d="M17.1 7.037C15.791 5.721 14.048 5 12.193 5C8.37095 5 5.25595 8.115 5.25595 11.937C5.25595 13.162 5.57795 14.352 6.17995 15.402L5.19995 19L8.87495 18.034C9.88995 18.587 11.031 18.881 12.193 18.881C16.015 18.881 19.13 15.766 19.13 11.944C19.13 10.089 18.409 8.346 17.1 7.037ZM12.193 17.705C11.157 17.705 10.142 17.425 9.25295 16.9L9.04295 16.774L6.85895 17.348L7.43995 15.22L7.29995 15.003C6.72595 14.086 6.41795 13.022 6.41795 11.937C6.41795 8.759 9.00795 6.169 12.186 6.169C13.726 6.169 15.175 6.771 16.26 7.863C17.352 8.955 17.947 10.404 17.947 11.944C17.961 15.122 15.371 17.705 12.193 17.705ZM15.357 13.393C15.182 13.309 14.328 12.889 14.174 12.826C14.013 12.77 13.901 12.742 13.782 12.91C13.663 13.085 13.334 13.477 13.236 13.589C13.138 13.708 13.033 13.722 12.858 13.631C12.683 13.547 12.123 13.358 11.465 12.77C10.947 12.308 10.604 11.741 10.499 11.566C10.401 11.391 10.485 11.3 10.576 11.209C10.653 11.132 10.751 11.006 10.835 10.908C10.919 10.81 10.954 10.733 11.01 10.621C11.066 10.502 11.038 10.404 10.996 10.32C10.954 10.236 10.604 9.382 10.464 9.032C10.324 8.696 10.177 8.738 10.072 8.731C9.96695 8.731 9.85495 8.731 9.73595 8.731C9.61695 8.731 9.43495 8.773 9.27395 8.948C9.11995 9.123 8.67195 9.543 8.67195 10.397C8.67195 11.251 9.29495 12.077 9.37895 12.189C9.46295 12.308 10.604 14.058 12.34 14.807C12.753 14.989 13.075 15.094 13.327 15.171C13.74 15.304 14.118 15.283 14.419 15.241C14.755 15.192 15.448 14.821 15.588 14.415C15.735 14.009 15.735 13.666 15.686 13.589C15.637 13.512 15.532 13.477 15.357 13.393Z" fill="white"/>
</svg>
