<svg width="50" height="9" viewBox="0 0 50 9" fill="none" xmlns="http://www.w3.org/2000/svg">
<path d="M7.87557 4.36446C7.87557 5.41811 7.55511 6.26198 6.92378 6.89133C6.19791 7.63741 5.25251 8.01281 4.09401 8.01281C2.98678 8.01281 2.04138 7.6311 1.26584 6.87871C0.488691 6.11529 0.100924 5.17836 0.100924 4.05688C0.100924 2.93541 0.488691 1.99848 1.26584 1.24136C2.04138 0.482668 2.98678 0.100955 4.09401 0.100955C4.64522 0.100955 5.17079 0.212945 5.67233 0.421152C6.17226 0.630936 6.57926 0.914854 6.8741 1.26502L6.20431 1.93065C5.68996 1.33285 4.98973 1.03789 4.09401 1.03789C3.28642 1.03789 2.58619 1.31549 1.99171 1.87544C1.40364 2.43697 1.10881 3.16412 1.10881 4.05688C1.10881 4.94965 1.40364 5.6831 1.99171 6.24463C2.58619 6.79827 3.28642 7.08219 4.09401 7.08219C4.95127 7.08219 5.67233 6.79827 6.24117 6.23832C6.61612 5.86765 6.82924 5.3566 6.88532 4.70358H4.09401V3.79189H7.81789C7.86276 3.98906 7.87557 4.17991 7.87557 4.36446Z" fill="white" stroke="white" stroke-width="0.16" stroke-miterlimit="10"/>
<path d="M13.7835 1.2035H10.2855V3.60104H13.439V4.51273H10.2855V6.91026H13.7835V7.83931H9.29524V0.274461H13.7835V1.2035Z" fill="white" stroke="white" stroke-width="0.16" stroke-miterlimit="10"/>
<path d="M17.9528 7.83931H16.9625V1.2035H14.817V0.274461H20.1V1.2035H17.9528V7.83931Z" fill="white" stroke="white" stroke-width="0.16" stroke-miterlimit="10"/>
<path d="M23.9233 7.83931V0.274461H24.9119V7.83931H23.9233Z" fill="white" stroke="white" stroke-width="0.16" stroke-miterlimit="10"/>
<path d="M29.2943 7.83931H28.3121V1.2035H26.1585V0.274461H31.4479V1.2035H29.2943V7.83931Z" fill="white" stroke="white" stroke-width="0.16" stroke-miterlimit="10"/>
<path d="M41.4498 6.8661C40.6919 7.6311 39.7529 8.01281 38.6329 8.01281C37.5064 8.01281 36.5675 7.6311 35.8095 6.8661C35.0532 6.10267 34.6767 5.16574 34.6767 4.05688C34.6767 2.94802 35.0532 2.01109 35.8095 1.24767C36.5675 0.482667 37.5064 0.100955 38.6329 0.100955C39.7465 0.100955 40.6855 0.482667 41.4434 1.25398C42.2062 2.02371 42.5827 2.95433 42.5827 4.05688C42.5827 5.16574 42.2062 6.10267 41.4498 6.8661ZM36.5418 6.23201C37.1123 6.79827 37.8061 7.08219 38.6329 7.08219C39.4533 7.08219 40.1535 6.79827 40.7176 6.23201C41.2864 5.66575 41.5748 4.93861 41.5748 4.05688C41.5748 3.17516 41.2864 2.44801 40.7176 1.88175C40.1535 1.31549 39.4533 1.03158 38.6329 1.03158C37.8061 1.03158 37.1123 1.31549 36.5418 1.88175C35.973 2.44801 35.6846 3.17516 35.6846 4.05688C35.6846 4.93861 35.973 5.66575 36.5418 6.23201Z" fill="white" stroke="white" stroke-width="0.16" stroke-miterlimit="10"/>
<path d="M43.9719 7.83931V0.274461H45.1737L48.9104 6.15788H48.9537L48.9104 4.70358V0.274461H49.8991V7.83931H48.8671L44.9542 1.66566H44.9109L44.9542 3.12626V7.83931H43.9719Z" fill="white" stroke="white" stroke-width="0.16" stroke-miterlimit="10"/>
</svg>
