<svg width="24" height="24" viewBox="0 0 24 24" fill="none" xmlns="http://www.w3.org/2000/svg">
<mask id="mask0_5_1540" style="mask-type:luminance" maskUnits="userSpaceOnUse" x="0" y="0" width="24" height="24">
<path d="M24 0H0V24H24V0Z" fill="white"/>
</mask>
<g mask="url(#mask0_5_1540)">
<mask id="mask1_5_1540" style="mask-type:luminance" maskUnits="userSpaceOnUse" x="0" y="0" width="24" height="24">
<path d="M0 1.90735e-06H24V24H0V1.90735e-06Z" fill="white"/>
</mask>
<g mask="url(#mask1_5_1540)">
<path d="M16.6859 5.625C16.6859 8.21386 14.5873 10.3125 11.9984 10.3125C9.40955 10.3125 7.31091 8.21386 7.31091 5.625C7.31091 3.03614 9.40955 0.937501 11.9984 0.937501C14.5873 0.937501 16.6859 3.03614 16.6859 5.625Z" stroke="black" stroke-width="2" stroke-miterlimit="10" stroke-linecap="round" stroke-linejoin="round"/>
<path d="M19.9269 18.2432C19.9269 13.8632 16.3763 10.3125 11.9963 10.3125C7.6163 10.3125 4.06561 13.8632 4.06561 18.2432V19.517H8.45077L11.9963 23.0625L15.5418 19.517H19.9269V18.2432Z" stroke="black" stroke-width="2" stroke-miterlimit="10" stroke-linecap="round" stroke-linejoin="round"/>
</g>
</g>
</svg>
