<svg width="172" height="50" viewBox="0 0 172 50" fill="none" xmlns="http://www.w3.org/2000/svg">
<path d="M170.476 44.2337C170.476 46.8983 168.294 49.0566 165.595 49.0566H5.84042C3.14239 49.0566 0.952393 46.8983 0.952393 44.2337V5.77259C0.952393 3.10929 3.14239 0.94339 5.84042 0.94339H165.593C168.294 0.94339 170.475 3.10929 170.475 5.77259L170.476 44.2337Z" fill="black"/>
<path d="M165.079 1.00156C168.019 1.00156 170.411 3.35625 170.411 6.25V43.75C170.411 46.6438 168.019 48.9984 165.079 48.9984H6.34921C3.40952 48.9984 1.01746 46.6438 1.01746 43.75V6.25C1.01746 3.35625 3.40952 1.00156 6.34921 1.00156H165.079ZM165.079 3.8147e-06H6.34921C2.85873 3.8147e-06 0 2.81407 0 6.25V43.75C0 47.1859 2.85873 50 6.34921 50H165.079C168.57 50 171.429 47.1859 171.429 43.75V6.25C171.429 2.81407 168.57 3.8147e-06 165.079 3.8147e-06Z" fill="#A6A6A6"/>
<path d="M38.2578 24.73C38.221 20.7012 41.6089 18.7412 41.7638 18.65C39.8451 15.8962 36.8711 15.52 35.826 15.49C33.3283 15.2312 30.9054 16.9612 29.633 16.9612C28.3352 16.9612 26.3759 15.515 24.2641 15.5575C21.5467 15.5987 19.0044 17.1475 17.6102 19.5525C14.7327 24.4562 16.8787 31.6625 19.6356 35.6262C21.0146 37.5675 22.626 39.735 24.7352 39.6587C26.7987 39.575 27.5695 38.3637 30.0597 38.3637C32.527 38.3637 33.2508 39.6587 35.4019 39.61C37.6165 39.575 39.0108 37.66 40.3416 35.7012C41.9352 33.4762 42.5752 31.285 42.6006 31.1725C42.5486 31.155 38.2997 29.5587 38.2578 24.73Z" fill="white"/>
<path d="M34.1943 12.8825C35.3041 11.5162 36.0635 9.65749 35.8527 7.77124C34.2463 7.84124 32.2375 8.86499 31.0806 10.2012C30.0571 11.3787 29.1429 13.3087 29.379 15.1237C31.1835 15.2562 33.0362 14.2275 34.1943 12.8825Z" fill="white"/>
<path d="M62.2857 12.5113C62.2857 13.9825 61.8375 15.09 60.9423 15.8338C60.113 16.52 58.9346 16.8638 57.4083 16.8638C56.6515 16.8638 56.0038 16.8313 55.4616 16.7663V8.72753C56.1689 8.61503 56.9308 8.55753 57.7537 8.55753C59.2076 8.55753 60.3035 8.86878 61.0426 9.49128C61.8705 10.195 62.2857 11.2013 62.2857 12.5113ZM60.8826 12.5475C60.8826 11.5938 60.6261 10.8625 60.113 10.3525C59.6 9.84378 58.8508 9.58878 57.8642 9.58878C57.4451 9.58878 57.0883 9.61628 56.7924 9.67378V15.785C56.9562 15.81 57.2559 15.8213 57.6915 15.8213C58.7099 15.8213 59.4959 15.5425 60.0496 14.985C60.6032 14.4275 60.8826 13.615 60.8826 12.5475Z" fill="white"/>
<path d="M69.7257 13.7962C69.7257 14.7025 69.4629 15.445 68.9371 16.0275C68.386 16.6262 67.6559 16.925 66.7441 16.925C65.8654 16.925 65.1657 16.6387 64.6438 16.0637C64.1232 15.49 63.8629 14.7662 63.8629 13.8937C63.8629 12.9812 64.1308 12.2325 64.6692 11.6512C65.2076 11.07 65.9314 10.7787 66.8432 10.7787C67.7219 10.7787 68.4279 11.065 68.9625 11.6387C69.4705 12.1962 69.7257 12.9162 69.7257 13.7962ZM68.3454 13.8387C68.3454 13.295 68.226 12.8287 67.9886 12.44C67.7092 11.97 67.3117 11.735 66.7949 11.735C66.2603 11.735 65.854 11.97 65.5746 12.44C65.3359 12.8287 65.2178 13.3025 65.2178 13.8625C65.2178 14.4062 65.3371 14.8725 65.5746 15.2612C65.8629 15.7312 66.2641 15.9662 66.7822 15.9662C67.2902 15.9662 67.6889 15.7275 67.9759 15.2487C68.2222 14.8525 68.3454 14.3825 68.3454 13.8387Z" fill="white"/>
<path d="M79.7016 10.8988L77.8286 16.7913H76.6095L75.8336 14.2325C75.6368 13.5938 75.4768 12.9588 75.3524 12.3288H75.3282C75.2127 12.9763 75.0527 13.61 74.847 14.2325L74.0228 16.7913H72.7898L71.0286 10.8988H72.3962L73.073 13.7C73.2368 14.3625 73.3714 14.9938 73.4794 15.5913H73.5035C73.6025 15.0988 73.7663 14.4713 73.9974 13.7125L74.847 10.9H75.9314L76.7454 13.6525C76.9422 14.3238 77.1022 14.97 77.2254 15.5925H77.2622C77.3524 14.9863 77.4882 14.34 77.6686 13.6525L78.3949 10.9H79.7016V10.8988Z" fill="white"/>
<path d="M86.6007 16.7913H85.2699V13.4163C85.2699 12.3763 84.8686 11.8563 84.0635 11.8563C83.6686 11.8563 83.3499 11.9988 83.1023 12.285C82.8572 12.5713 82.7327 12.9088 82.7327 13.295V16.79H81.4019V12.5825C81.4019 12.065 81.3854 11.5038 81.3537 10.8963H82.5232L82.5854 11.8175H82.6223C82.7772 11.5313 83.0083 11.295 83.3118 11.1063C83.6724 10.8863 84.0762 10.775 84.5181 10.775C85.0769 10.775 85.5416 10.9525 85.9111 11.3088C86.3708 11.745 86.6007 12.3963 86.6007 13.2613V16.7913Z" fill="white"/>
<path d="M90.2705 16.7913H88.941V8.19501H90.2705V16.7913Z" fill="white"/>
<path d="M98.1054 13.7962C98.1054 14.7025 97.8426 15.445 97.3168 16.0275C96.7657 16.6262 96.0343 16.925 95.1238 16.925C94.2438 16.925 93.5441 16.6387 93.0235 16.0637C92.5029 15.49 92.2426 14.7662 92.2426 13.8937C92.2426 12.9812 92.5105 12.2325 93.0489 11.6512C93.5873 11.07 94.3111 10.7787 95.2216 10.7787C96.1016 10.7787 96.8064 11.065 97.3422 11.6387C97.8502 12.1962 98.1054 12.9162 98.1054 13.7962ZM96.7238 13.8387C96.7238 13.295 96.6045 12.8287 96.367 12.44C96.0889 11.97 95.6902 11.735 95.1746 11.735C94.6387 11.735 94.2324 11.97 93.9543 12.44C93.7156 12.8287 93.5975 13.3025 93.5975 13.8625C93.5975 14.4062 93.7168 14.8725 93.9543 15.2612C94.2426 15.7312 94.6438 15.9662 95.1619 15.9662C95.6699 15.9662 96.0673 15.7275 96.3543 15.2487C96.6019 14.8525 96.7238 14.3825 96.7238 13.8387Z" fill="white"/>
<path d="M104.546 16.7912H103.351L103.252 16.1125H103.215C102.806 16.6537 102.224 16.925 101.467 16.925C100.902 16.925 100.444 16.7462 100.1 16.3912C99.788 16.0687 99.6318 15.6675 99.6318 15.1912C99.6318 14.4712 99.9365 13.9225 100.55 13.5425C101.162 13.1625 102.023 12.9762 103.131 12.985V12.875C103.131 12.0987 102.717 11.7112 101.888 11.7112C101.298 11.7112 100.777 11.8575 100.328 12.1475L100.057 11.2875C100.613 10.9487 101.3 10.7787 102.111 10.7787C103.675 10.7787 104.46 11.5912 104.46 13.2162V15.3862C104.46 15.975 104.489 16.4437 104.546 16.7912ZM103.164 14.7662V13.8575C101.697 13.8325 100.963 14.2287 100.963 15.045C100.963 15.3525 101.046 15.5825 101.218 15.7362C101.389 15.89 101.608 15.9662 101.868 15.9662C102.16 15.9662 102.433 15.875 102.682 15.6937C102.932 15.5112 103.086 15.28 103.143 14.9962C103.157 14.9325 103.164 14.855 103.164 14.7662Z" fill="white"/>
<path d="M112.108 16.7913H110.927L110.865 15.845H110.828C110.451 16.565 109.808 16.925 108.905 16.925C108.184 16.925 107.584 16.6463 107.107 16.0888C106.631 15.5313 106.394 14.8075 106.394 13.9188C106.394 12.965 106.651 12.1925 107.17 11.6025C107.671 11.0525 108.286 10.7775 109.017 10.7775C109.821 10.7775 110.384 11.0438 110.704 11.5775H110.729V8.19501H112.061V15.2038C112.061 15.7775 112.076 16.3063 112.108 16.7913ZM110.729 14.3063V13.3238C110.729 13.1538 110.716 13.0163 110.692 12.9113C110.617 12.5963 110.456 12.3313 110.211 12.1175C109.963 11.9038 109.665 11.7963 109.321 11.7963C108.824 11.7963 108.436 11.99 108.15 12.3788C107.867 12.7675 107.723 13.2638 107.723 13.87C107.723 14.4525 107.859 14.925 108.132 15.2888C108.42 15.6763 108.809 15.87 109.295 15.87C109.732 15.87 110.081 15.7088 110.347 15.385C110.603 15.0863 110.729 14.7263 110.729 14.3063Z" fill="white"/>
<path d="M123.49 13.7962C123.49 14.7025 123.227 15.445 122.701 16.0275C122.15 16.6262 121.421 16.925 120.508 16.925C119.631 16.925 118.931 16.6387 118.408 16.0637C117.887 15.49 117.627 14.7662 117.627 13.8937C117.627 12.9812 117.895 12.2325 118.433 11.6512C118.971 11.07 119.695 10.7787 120.608 10.7787C121.486 10.7787 122.193 11.065 122.726 11.6387C123.234 12.1962 123.49 12.9162 123.49 13.7962ZM122.111 13.8387C122.111 13.295 121.991 12.8287 121.754 12.44C121.473 11.97 121.077 11.735 120.559 11.735C120.025 11.735 119.619 11.97 119.338 12.44C119.1 12.8287 118.982 13.3025 118.982 13.8625C118.982 14.4062 119.101 14.8725 119.338 15.2612C119.627 15.7312 120.028 15.9662 120.546 15.9662C121.054 15.9662 121.454 15.7275 121.741 15.2487C121.986 14.8525 122.111 14.3825 122.111 13.8387Z" fill="white"/>
<path d="M130.645 16.7913H129.316V13.4163C129.316 12.3763 128.914 11.8563 128.108 11.8563C127.713 11.8563 127.394 11.9988 127.148 12.285C126.902 12.5713 126.778 12.9088 126.778 13.295V16.79H125.446V12.5825C125.446 12.065 125.431 11.5038 125.399 10.8963H126.568L126.63 11.8175H126.667C126.823 11.5313 127.054 11.295 127.356 11.1063C127.718 10.8863 128.121 10.775 128.564 10.775C129.121 10.775 129.586 10.9525 129.956 11.3088C130.417 11.745 130.645 12.3963 130.645 13.2613V16.7913Z" fill="white"/>
<path d="M139.601 11.88H138.136V14.7425C138.136 15.47 138.396 15.8338 138.912 15.8338C139.151 15.8338 139.349 15.8138 139.505 15.7725L139.539 16.7663C139.276 16.8638 138.931 16.9125 138.505 16.9125C137.98 16.9125 137.571 16.755 137.275 16.44C136.978 16.125 136.831 15.595 136.831 14.8513V11.88H135.956V10.8988H136.831V9.81877L138.135 9.43127V10.8975H139.6V11.88H139.601Z" fill="white"/>
<path d="M146.646 16.7913H145.314V13.4413C145.314 12.385 144.913 11.8563 144.109 11.8563C143.492 11.8563 143.07 12.1625 142.839 12.775C142.8 12.9038 142.777 13.0613 142.777 13.2463V16.79H141.448V8.19501H142.777V11.7463H142.803C143.222 11.1 143.822 10.7775 144.601 10.7775C145.152 10.7775 145.608 10.955 145.97 11.3113C146.42 11.755 146.646 12.415 146.646 13.2875V16.7913Z" fill="white"/>
<path d="M153.914 13.5663C153.914 13.8013 153.896 13.9988 153.864 14.16H149.873C149.891 14.7425 150.081 15.1863 150.451 15.4938C150.789 15.7688 151.224 15.9063 151.757 15.9063C152.348 15.9063 152.886 15.8138 153.371 15.6275L153.58 16.5375C153.012 16.78 152.344 16.9013 151.571 16.9013C150.644 16.9013 149.914 16.6325 149.385 16.095C148.855 15.5575 148.592 14.8363 148.592 13.9313C148.592 13.0425 148.837 12.3025 149.331 11.7125C149.846 11.0825 150.543 10.7675 151.423 10.7675C152.284 10.7675 152.938 11.0825 153.38 11.7125C153.737 12.2125 153.914 12.8313 153.914 13.5663ZM152.644 13.2275C152.654 12.8388 152.566 12.5038 152.386 12.2213C152.155 11.8575 151.803 11.675 151.327 11.675C150.893 11.675 150.538 11.8525 150.268 12.2088C150.047 12.4925 149.916 12.8313 149.873 13.2275H152.644Z" fill="white"/>
<path d="M68.1206 39.38H65.2368L63.6571 34.4937H58.1663L56.6616 39.38H53.8539L59.2939 22.745H62.6539L68.1206 39.38ZM63.1809 32.4437L61.7524 28.1C61.6012 27.6562 61.3181 26.6112 60.9003 24.9662H60.8495C60.6831 25.6737 60.4152 26.7187 60.047 28.1L58.6438 32.4437H63.1809Z" fill="white"/>
<path d="M82.1105 33.235C82.1105 35.275 81.5505 36.8875 80.4305 38.0713C79.4273 39.125 78.1816 39.6513 76.6946 39.6513C75.0895 39.6513 73.9365 39.0838 73.2343 37.9488H73.1835V44.2675H70.4762V31.3338C70.4762 30.0513 70.4419 28.735 70.3759 27.385H72.7568L72.9079 29.2863H72.9587C73.8616 27.8538 75.2317 27.1388 77.0705 27.1388C78.5079 27.1388 79.7079 27.6975 80.6679 28.8163C81.6305 29.9363 82.1105 31.4088 82.1105 33.235ZM79.3524 33.3325C79.3524 32.165 79.0857 31.2025 78.5498 30.445C77.9644 29.655 77.1784 29.26 76.193 29.26C75.5251 29.26 74.9181 29.48 74.3759 29.9138C73.8324 30.3513 73.4768 30.9225 73.3105 31.63C73.2266 31.96 73.1847 32.23 73.1847 32.4425V34.4425C73.1847 35.315 73.4565 36.0513 74 36.6525C74.5435 37.2538 75.2495 37.5538 76.1181 37.5538C77.1378 37.5538 77.9314 37.1663 78.499 36.3938C79.0679 35.62 79.3524 34.6 79.3524 33.3325Z" fill="white"/>
<path d="M96.1257 33.235C96.1257 35.275 95.5657 36.8875 94.4444 38.0713C93.4425 39.125 92.1968 39.6513 90.7098 39.6513C89.1047 39.6513 87.9517 39.0838 87.2507 37.9488H87.2V44.2675H84.4927V31.3338C84.4927 30.0513 84.4584 28.735 84.3923 27.385H86.7733L86.9244 29.2863H86.9752C87.8768 27.8538 89.2469 27.1388 91.0869 27.1388C92.5231 27.1388 93.7231 27.6975 94.6857 28.8163C95.6444 29.9363 96.1257 31.4088 96.1257 33.235ZM93.3676 33.3325C93.3676 32.165 93.0996 31.2025 92.5638 30.445C91.9784 29.655 91.1949 29.26 90.2082 29.26C89.539 29.26 88.9333 29.48 88.3898 29.9138C87.8463 30.3513 87.492 30.9225 87.3257 31.63C87.2431 31.96 87.2 32.23 87.2 32.4425V34.4425C87.2 35.315 87.4717 36.0513 88.0127 36.6525C88.5561 37.2525 89.2622 37.5538 90.1333 37.5538C91.153 37.5538 91.9466 37.1663 92.5142 36.3938C93.0831 35.62 93.3676 34.6 93.3676 33.3325Z" fill="white"/>
<path d="M111.796 34.715C111.796 36.13 111.296 37.2813 110.295 38.17C109.194 39.1413 107.661 39.6263 105.691 39.6263C103.873 39.6263 102.415 39.2813 101.312 38.59L101.939 36.3688C103.128 37.0763 104.432 37.4313 105.853 37.4313C106.872 37.4313 107.666 37.2038 108.236 36.7513C108.804 36.2988 109.087 35.6913 109.087 34.9338C109.087 34.2588 108.853 33.69 108.385 33.2288C107.919 32.7675 107.14 32.3388 106.053 31.9425C103.095 30.8563 101.616 29.265 101.616 27.1725C101.616 25.805 102.135 24.6838 103.172 23.8113C104.206 22.9375 105.585 22.5013 107.309 22.5013C108.847 22.5013 110.124 22.765 111.144 23.2913L110.467 25.4638C109.515 24.9538 108.438 24.6988 107.233 24.6988C106.281 24.6988 105.536 24.93 105.003 25.39C104.552 25.8013 104.326 26.3025 104.326 26.8963C104.326 27.5538 104.584 28.0975 105.102 28.525C105.553 28.92 106.372 29.3475 107.561 29.8088C109.015 30.385 110.083 31.0588 110.769 31.8313C111.454 32.6013 111.796 33.565 111.796 34.715Z" fill="white"/>
<path d="M120.747 29.385H117.763V35.2087C117.763 36.69 118.288 37.43 119.342 37.43C119.826 37.43 120.227 37.3887 120.545 37.3062L120.62 39.33C120.086 39.5262 119.384 39.625 118.514 39.625C117.445 39.625 116.609 39.3037 116.006 38.6625C115.406 38.02 115.103 36.9425 115.103 35.4287V29.3825H113.326V27.3825H115.103V25.1862L117.763 24.3962V27.3825H120.747V29.385Z" fill="white"/>
<path d="M134.211 33.2837C134.211 35.1275 133.675 36.6412 132.606 37.825C131.484 39.0437 129.996 39.6512 128.141 39.6512C126.353 39.6512 124.929 39.0675 123.868 37.9C122.806 36.7325 122.276 35.2587 122.276 33.4825C122.276 31.6237 122.822 30.1012 123.917 28.9175C125.011 27.7325 126.486 27.14 128.342 27.14C130.129 27.14 131.568 27.7237 132.654 28.8925C133.693 30.0262 134.211 31.49 134.211 33.2837ZM131.402 33.37C131.402 32.2637 131.162 31.315 130.676 30.5237C130.108 29.5662 129.296 29.0887 128.245 29.0887C127.157 29.0887 126.33 29.5675 125.762 30.5237C125.276 31.3162 125.036 32.28 125.036 33.42C125.036 34.5262 125.276 35.475 125.762 36.265C126.348 37.2225 127.166 37.7 128.221 37.7C129.255 37.7 130.066 37.2125 130.651 36.24C131.15 35.4337 131.402 34.475 131.402 33.37Z" fill="white"/>
<path d="M143.011 29.7288C142.743 29.68 142.457 29.655 142.157 29.655C141.205 29.655 140.469 30.0088 139.95 30.7175C139.5 31.3425 139.274 32.1325 139.274 33.0863V39.38H136.568L136.593 31.1625C136.593 29.78 136.559 28.5213 136.491 27.3863H138.85L138.949 29.6813H139.023C139.309 28.8925 139.76 28.2575 140.377 27.7813C140.98 27.3525 141.632 27.1388 142.334 27.1388C142.584 27.1388 142.81 27.1563 143.011 27.1875V29.7288Z" fill="white"/>
<path d="M155.119 32.815C155.119 33.2925 155.087 33.695 155.02 34.0237H146.898C146.929 35.2087 147.322 36.115 148.076 36.74C148.761 37.2987 149.646 37.5787 150.733 37.5787C151.935 37.5787 153.032 37.39 154.019 37.0112L154.443 38.8612C153.29 39.3562 151.929 39.6025 150.358 39.6025C148.469 39.6025 146.985 39.055 145.906 37.9612C144.829 36.8675 144.289 35.3987 144.289 33.5562C144.289 31.7475 144.791 30.2412 145.796 29.04C146.847 27.7575 148.268 27.1162 150.056 27.1162C151.812 27.1162 153.142 27.7575 154.044 29.04C154.759 30.0587 155.119 31.3187 155.119 32.815ZM152.537 32.1237C152.555 31.3337 152.378 30.6512 152.011 30.075C151.543 29.3337 150.823 28.9637 149.854 28.9637C148.969 28.9637 148.249 29.325 147.699 30.05C147.248 30.6262 146.98 31.3175 146.898 32.1225H152.537V32.1237Z" fill="white"/>
</svg>
