<svg width="108" height="22" viewBox="0 0 108 22" fill="none" xmlns="http://www.w3.org/2000/svg">
<path d="M34.5159 5.90155C31.5239 5.90155 29.0796 8.14304 29.0796 11.2357C29.0796 14.3032 31.5239 16.5682 34.5159 16.5682C37.5143 16.5682 39.9586 14.3032 39.9586 11.2357C39.9586 8.14304 37.5143 5.90155 34.5159 5.90155ZM34.5159 14.4678C32.8742 14.4678 31.4618 13.1339 31.4618 11.2357C31.4618 9.31238 32.8742 8.00197 34.5159 8.00197C36.1576 8.00197 37.5764 9.31238 37.5764 11.2357C37.5764 13.1339 36.1576 14.4678 34.5159 14.4678ZM22.6545 5.90155C19.656 5.90155 17.2182 8.14304 17.2182 11.2357C17.2182 14.3032 19.656 16.5682 22.6545 16.5682C25.6513 16.5682 28.0908 14.3032 28.0908 11.2357C28.0908 8.14304 25.6513 5.90155 22.6545 5.90155ZM22.6545 14.4678C21.0111 14.4678 19.5939 13.1339 19.5939 11.2357C19.5939 9.31238 21.0111 8.00197 22.6545 8.00197C24.2962 8.00197 25.7086 9.31238 25.7086 11.2357C25.7086 13.1339 24.2962 14.4678 22.6545 14.4678ZM8.53981 7.53643V9.803H14.0382C13.8774 11.0695 13.4474 12.0006 12.7882 12.6495C11.9857 13.4333 10.7357 14.3032 8.53981 14.3032C5.15605 14.3032 2.50637 11.615 2.50637 8.28412C2.50637 4.95323 5.15605 2.26501 8.53981 2.26501C10.3694 2.26501 11.7006 2.96881 12.6831 3.88108L14.3057 2.28382C12.9315 0.992215 11.1035 2.39178e-06 8.53981 2.39178e-06C3.89968 2.39178e-06 0 3.71649 0 8.28412C0 12.8517 3.89968 16.5682 8.53981 16.5682C11.0478 16.5682 12.9315 15.7594 14.4124 14.2421C15.9299 12.7483 16.4029 10.6479 16.4029 8.95186C16.4029 8.42519 16.3583 7.94084 16.2787 7.53643H8.53981ZM66.2564 9.29357C65.8089 8.10072 64.4283 5.90155 61.6162 5.90155C58.8296 5.90155 56.5096 8.0631 56.5096 11.2357C56.5096 14.2233 58.8057 16.5682 61.8838 16.5682C64.3726 16.5682 65.8089 15.0744 66.3997 14.2045L64.5526 12.9928C63.9363 13.88 63.0971 14.4678 61.8838 14.4678C60.6783 14.4678 59.8137 13.9239 59.2595 12.8517L66.5064 9.90018L66.2564 9.29357ZM58.8678 11.0695C58.8057 9.01299 60.4904 7.95965 61.6975 7.95965C62.6433 7.95965 63.4459 8.42519 63.7134 9.09137L58.8678 11.0695ZM52.9777 16.2438H55.3599V0.568997H52.9777V16.2438ZM49.0764 7.0897H48.9968C48.4618 6.46584 47.4411 5.90155 46.1481 5.90155C43.4347 5.90155 40.9538 8.2465 40.9538 11.2529C40.9538 14.2421 43.4347 16.5682 46.1481 16.5682C47.4411 16.5682 48.4618 15.9992 48.9968 15.3566H49.0764V16.1215C49.0764 18.1608 47.9697 19.2565 46.1847 19.2565C44.7293 19.2565 43.8264 18.2219 43.4538 17.352L41.3822 18.2031C41.9793 19.617 43.5605 21.3569 46.1847 21.3569C48.9777 21.3569 51.3344 19.7392 51.3344 15.8033V6.22602H49.0764V7.0897ZM46.3519 14.4678C44.7102 14.4678 43.336 13.1151 43.336 11.2529C43.336 9.37351 44.7102 8.00197 46.3519 8.00197C47.9697 8.00197 49.2452 9.37351 49.2452 11.2529C49.2452 13.1151 47.9697 14.4678 46.3519 14.4678ZM77.4092 0.568997H71.7118V16.2438H74.0876V10.3046H77.4092C80.0478 10.3046 82.6353 8.42519 82.6353 5.43601C82.6353 2.4484 80.0414 0.568997 77.4092 0.568997ZM77.4713 8.12423H74.0876V2.74936H77.4713C79.2452 2.74936 80.258 4.19927 80.258 5.43601C80.258 6.64924 79.2452 8.12423 77.4713 8.12423ZM92.1576 5.87177C90.4411 5.87177 88.656 6.61789 87.922 8.27158L90.0303 9.14153C90.4841 8.27158 91.3185 7.98943 92.2006 7.98943C93.4331 7.98943 94.6831 8.71831 94.7022 10.0052V10.1698C94.2723 9.92526 93.3519 9.56318 92.2198 9.56318C89.9491 9.56318 87.6353 10.7936 87.6353 13.09C87.6353 15.1904 89.4952 16.5431 91.586 16.5431C93.1847 16.5431 94.0669 15.8331 94.621 15.007H94.7022V16.2187H96.9968V10.2058C96.9968 7.42671 94.8885 5.87177 92.1576 5.87177ZM91.871 14.4615C91.0939 14.4615 90.0112 14.0822 90.0112 13.1339C90.0112 11.9207 91.3615 11.4551 92.5303 11.4551C93.5764 11.4551 94.0669 11.6824 94.7022 11.9818C94.5159 13.4333 93.2468 14.4615 91.871 14.4615ZM105.357 6.21505L102.626 13.0101H102.545L99.7213 6.21505H97.1592L101.401 15.7108L98.9809 20.9948H101.463L108 6.21505H105.357ZM83.9411 16.2438H86.3232V0.568997H83.9411V16.2438Z" fill="white"/>
</svg>
