<svg width="20" height="20" viewBox="0 0 20 20" fill="none" xmlns="http://www.w3.org/2000/svg">
<path d="M19.9597 14.9738V17.9846C19.9609 18.2641 19.9036 18.5408 19.7917 18.7969C19.6797 19.053 19.5155 19.2829 19.3095 19.4718C19.1035 19.6608 18.8604 19.8047 18.5956 19.8942C18.3308 19.9837 18.0503 20.017 17.7719 19.9918C14.6836 19.6563 11.7172 18.601 9.11081 16.9108C6.68594 15.3699 4.63007 13.3141 3.0892 10.8892C1.39309 8.27099 0.337571 5.29008 0.00814594 2.18795C-0.0169336 1.91042 0.0160492 1.63071 0.104994 1.36663C0.193939 1.10254 0.336897 0.859872 0.524766 0.654065C0.712635 0.448259 0.9413 0.283825 1.1962 0.171233C1.4511 0.058642 1.72665 0.000359723 2.00531 9.73015e-05H5.01612C5.50317 -0.00469635 5.97535 0.167778 6.34465 0.485372C6.71394 0.802965 6.95516 1.24401 7.02332 1.72629C7.1504 2.68982 7.38607 3.63587 7.72584 4.54641C7.86087 4.90563 7.8901 5.29602 7.81005 5.67133C7.73001 6.04664 7.54405 6.39114 7.27422 6.66401L5.99965 7.93859C7.42833 10.4512 9.5087 12.5315 12.0213 13.9602L13.2958 12.6856C13.5687 12.4158 13.9132 12.2298 14.2885 12.1498C14.6638 12.0698 15.0542 12.099 15.4134 12.234C16.324 12.5738 17.27 12.8094 18.2336 12.9365C18.7211 13.0053 19.1663 13.2509 19.4846 13.6265C19.8029 14.0021 19.972 14.4816 19.9597 14.9738Z" fill="white"/>
</svg>
