<svg width="24" height="24" viewBox="0 0 24 24" fill="none" xmlns="http://www.w3.org/2000/svg">
<path d="M23.9929 12C23.9929 5.37258 18.6219 0 11.9965 0C5.37101 0 0 5.37258 0 12C0 18.6274 5.37101 24 11.9965 24C18.6219 24 23.9929 18.6274 23.9929 12Z" fill="black"/>
<path d="M19.5506 9.51334C19.4562 8.60181 19.2531 7.59416 18.5053 7.06461C17.9262 6.65395 17.165 6.63877 16.4544 6.63962C14.9522 6.63962 13.4491 6.64215 11.9469 6.64299C10.5021 6.64468 9.05719 6.64552 7.61232 6.64721C7.00874 6.64721 6.42203 6.60083 5.86144 6.86223C5.3801 7.08653 5.00329 7.51321 4.77653 7.98794C4.46209 8.64819 4.39635 9.39614 4.35841 10.1264C4.28844 11.4561 4.29603 12.7893 4.37949 14.1182C4.44102 15.0879 4.59697 16.1597 5.34638 16.7778C6.01065 17.325 6.94805 17.352 7.80957 17.3529C10.5442 17.3554 13.2797 17.3579 16.0152 17.3596C16.3658 17.3604 16.7317 17.3537 17.0891 17.3149C17.7922 17.239 18.4623 17.0375 18.9142 16.5164C19.3702 15.991 19.4874 15.26 19.5565 14.5677C19.7251 12.8879 19.7234 11.1922 19.5506 9.51334ZM10.3655 14.3543V9.64489L14.4422 11.9992L10.3655 14.3543Z" fill="white"/>
</svg>
