<svg width="357" height="238" viewBox="0 0 357 238" fill="none" xmlns="http://www.w3.org/2000/svg">
<path d="M355.655 134.039C352.977 103.984 348.567 98.1304 346.901 95.9289C343.071 90.8416 336.942 87.5171 330.457 84.0289C330.09 83.8349 329.773 83.5584 329.532 83.2212C329.29 82.8839 329.13 82.4951 329.065 82.0855C328.999 81.6758 329.029 81.2565 329.153 80.8606C329.278 80.4648 329.492 80.1032 329.78 79.8044C330.981 78.5863 331.904 77.1226 332.486 75.5139C333.067 73.9052 333.294 72.1897 333.149 70.4852C332.869 67.4627 331.464 64.6557 329.211 62.6209C326.959 60.5861 324.024 59.4722 320.989 59.5H309.386C308.889 59.5029 308.392 59.5352 307.899 59.5967C307.56 59.4498 307.209 59.3328 306.85 59.2471C299.978 44.7217 290.569 24.8338 271.068 15.1279C242.144 0.743747 188.862 0 178.449 0C168.037 0 114.754 0.743749 85.8671 15.1056C66.366 24.8115 56.9575 44.6994 50.0853 59.2248L50.0258 59.3438C49.683 59.392 49.3464 59.4768 49.0217 59.5967C48.5282 59.5352 48.0315 59.5029 47.5342 59.5H35.9094C32.8741 59.4722 29.9392 60.5861 27.6867 62.6209C25.4343 64.6557 24.0288 67.4627 23.7491 70.4852C23.617 72.1857 23.8536 73.8947 24.4428 75.4954C25.032 77.0961 25.9598 78.5507 27.1629 79.7598C27.4507 80.0586 27.6652 80.4201 27.7893 80.816C27.9135 81.2119 27.9439 81.6312 27.8783 82.0408C27.8127 82.4505 27.6527 82.8393 27.4111 83.1765C27.1695 83.5138 26.8528 83.7903 26.4861 83.9842C20.0006 87.4947 13.8423 90.8193 10.0418 95.8842C8.37578 98.1155 3.97277 103.939 1.28784 133.994C-0.199663 150.907 -0.422787 168.415 0.7449 179.69C3.19184 203.118 7.78078 217.279 7.97415 217.867C8.67832 220.005 9.97454 221.899 11.7123 223.33C13.4501 224.762 15.5581 225.67 17.7917 225.951V226.1C17.7917 229.256 19.0454 232.283 21.2771 234.515C23.5088 236.746 26.5356 238 29.6916 238H71.3416C74.4977 238 77.5245 236.746 79.7562 234.515C81.9879 232.283 83.2416 229.256 83.2416 226.1C89.6453 226.1 94.1004 224.955 98.8232 223.735C105.642 221.898 112.611 220.675 119.648 220.083C142.34 217.919 164.905 217.175 178.449 217.175C191.718 217.175 215.28 217.919 238.009 220.083C245.073 220.677 252.07 221.904 258.915 223.75C263.437 224.91 267.729 225.981 273.671 226.093C273.671 229.249 274.925 232.275 277.157 234.507C279.388 236.739 282.415 237.993 285.571 237.993H327.221C330.377 237.993 333.404 236.739 335.636 234.507C337.868 232.275 339.121 229.249 339.121 226.093V226.003C341.36 225.728 343.475 224.821 345.218 223.39C346.962 221.959 348.262 220.061 348.969 217.919C349.162 217.331 353.751 203.17 356.198 179.742C357.366 168.459 357.157 150.981 355.655 134.039ZM71.5945 69.3993C77.5445 56.7556 84.3498 42.4458 96.4655 36.414C113.973 27.6973 150.261 23.7702 178.449 23.7702C206.637 23.7702 242.925 27.6675 260.433 36.414C272.548 42.4458 279.324 56.763 285.304 69.3993L286.047 71.0132C286.482 71.932 286.675 72.947 286.606 73.9612C286.537 74.9754 286.21 75.9551 285.655 76.8068C285.1 77.6585 284.336 78.3539 283.436 78.8266C282.536 79.2992 281.53 79.5335 280.514 79.5069C255.799 78.8375 203.737 76.6955 178.449 76.6955C153.162 76.6955 101.099 78.8896 76.3471 79.5589C75.3309 79.5855 74.3248 79.3513 73.4249 78.8786C72.5249 78.406 71.7611 77.7106 71.2062 76.8589C70.6513 76.0071 70.3239 75.0274 70.2551 74.0132C70.1864 72.999 70.3787 71.9841 70.8136 71.0653C71.0739 70.5149 71.3491 69.9571 71.5945 69.3993ZM80.4675 128.624C67.6735 130.164 54.7977 130.924 41.9115 130.9C34.0277 130.9 25.8985 128.669 24.3887 121.648C23.3549 116.925 23.4665 114.27 24.0243 111.6C24.4928 109.331 25.2366 107.68 28.9553 107.1C38.6241 105.613 44.0312 107.479 59.8582 112.143C70.3525 115.229 77.9238 119.342 82.2376 122.6C84.4019 124.206 83.2491 128.401 80.4675 128.624ZM245.119 189.612C235.331 190.727 215.756 190.318 178.672 190.318C141.589 190.318 122.021 190.727 112.233 189.612C102.133 188.489 89.2586 178.939 98.0497 170.43C103.903 164.822 117.558 160.628 135.743 158.27C153.928 155.912 161.625 154.7 178.598 154.7C195.57 154.7 202.487 155.444 221.453 158.277C240.418 161.111 254.75 165.358 259.146 170.438C267.164 179.541 255.212 188.429 245.119 189.656V189.612ZM332.509 121.64C331.022 128.691 322.841 130.893 314.987 130.893C301.854 130.896 288.732 130.136 275.687 128.617C273.411 128.401 272.355 124.407 274.661 122.592C278.907 119.253 286.561 115.222 297.04 112.135C312.867 107.472 321.993 105.605 329.832 107.16C331.743 107.539 332.755 109.592 332.874 110.878C333.398 114.461 333.275 118.109 332.509 121.648V121.64Z" fill="black" fill-opacity="0.2"/>
</svg>
