<svg width="40" height="40" viewBox="0 0 40 40" fill="none" xmlns="http://www.w3.org/2000/svg">
<path d="M24.6875 19.125C23.25 20.5625 21.875 21.9375 20.4375 23.375C19.5625 22.5 18.625 21.5625 17.75 20.6875C16.625 19.5625 14.8125 21.3125 16 22.4375C17.1875 23.625 18.375 24.8125 19.5625 26C20.0625 26.5 20.875 26.5 21.3125 26L26.4375 20.875C27.625 19.75 25.875 18 24.6875 19.125Z" fill="#B2092A"/>
<path d="M32.2501 5.5C32.2501 5.375 32.2501 5.25 32.2501 5.125C32.2501 4.5 31.6876 3.875 31.0001 3.875C30.3126 3.875 29.7501 4.4375 29.7501 5.125V5.5H14.3126V5.4375C14.3126 5.3125 14.3126 5.1875 14.3126 5.0625C14.3126 4.4375 13.7501 3.8125 13.0626 3.8125C12.3751 3.8125 11.8126 4.375 11.8126 5.0625V5.5625C8.93758 5.5625 6.56258 7.9375 6.56258 10.8125V15.625C6.50008 15.8125 6.43758 15.9375 6.43758 16.125C6.06258 18.8125 5.43758 21.5 4.56258 24.0625C4.12508 25.25 3.62508 26.5 3.06258 27.625C2.56258 28.6875 2.62508 29.875 3.25008 30.8125C3.87508 31.75 4.87508 32.3125 6.00008 32.3125H6.68758C7.25008 34.625 9.31258 36.3125 11.8126 36.3125H32.0626C34.9376 36.3125 37.3126 33.9375 37.3126 31.0625V10.75C37.3126 7.875 35.0626 5.625 32.2501 5.5ZM11.7501 8V8.25C11.7501 8.875 12.3126 9.5 13.0001 9.5C13.6876 9.5 14.2501 8.9375 14.2501 8.25C14.2501 8.1875 14.2501 8.0625 14.2501 8H29.7501V8.375C29.7501 9 30.3126 9.625 31.0001 9.625C31.6876 9.625 32.2501 9.0625 32.2501 8.375C32.2501 8.25 32.2501 8.125 32.2501 8C33.6876 8.125 34.8126 9.3125 34.8126 10.75V13.75C34.7501 13.75 34.6251 13.75 34.5626 13.75H9.00008V10.75C9.00008 9.1875 10.2501 8 11.7501 8ZM5.31258 29.4375C5.18758 29.1875 5.12508 28.9375 5.25008 28.6875C5.81258 27.4375 6.37508 26.1875 6.81258 24.875C7.75008 22.125 8.43758 19.3125 8.81258 16.4375C8.81258 16.375 8.87508 16.3125 8.93758 16.3125H34.5001C34.5001 16.3125 34.5626 16.3125 34.6251 16.375C34.6251 16.375 34.6876 16.4375 34.6876 16.5C34.3751 19.3125 33.7501 22.0625 32.8751 24.6875C32.4376 26 31.8751 27.3125 31.2501 28.625C30.8751 29.375 30.0626 29.875 29.1876 29.875H6.00008C5.68758 29.75 5.43758 29.625 5.31258 29.4375ZM32.0626 33.75H11.7501C10.6876 33.75 9.81258 33.125 9.31258 32.25H29.1251C30.9376 32.25 32.6251 31.1875 33.4376 29.5625C33.9376 28.5625 34.3751 27.5 34.7501 26.4375V31C34.8126 32.5 33.5626 33.75 32.0626 33.75Z" fill="#B2092A"/>
</svg>
