<svg width="24" height="24" viewBox="0 0 24 24" fill="none" xmlns="http://www.w3.org/2000/svg">
<path d="M5.7077 12.0093C6.43122 12.0093 7.01775 11.4227 7.01775 10.6992C7.01775 9.97569 6.43122 9.38916 5.7077 9.38916C4.98417 9.38916 4.39764 9.97569 4.39764 10.6992C4.39764 11.4227 4.98417 12.0093 5.7077 12.0093Z" stroke="black" stroke-width="2" stroke-miterlimit="10"/>
<path d="M9.43128 10.6993C9.43128 8.64411 7.7652 6.97803 5.71001 6.97803C3.66047 6.97803 2.00494 8.61993 1.98882 10.6694C1.98113 11.6463 2.37904 12.5115 2.95883 13.205C3.61323 13.9878 5.70997 15.9229 5.70997 15.9229C5.70997 15.9229 7.72398 14.0538 8.45487 13.2118C9.04343 12.5339 9.43128 11.6678 9.43128 10.6993Z" stroke="black" stroke-width="2" stroke-miterlimit="10"/>
<path d="M5.713 22.0004C6.65736 22.0004 7.42291 21.2348 7.42291 20.2905C7.42291 19.3461 6.65736 18.5806 5.713 18.5806C4.76864 18.5806 4.00308 19.3461 4.00308 20.2905C4.00308 21.2348 4.76864 22.0004 5.713 22.0004Z" stroke="black" stroke-width="2" stroke-miterlimit="10"/>
<path d="M19.059 5.41983C20.0034 5.41983 20.7689 4.65427 20.7689 3.70991C20.7689 2.76555 20.0034 2 19.059 2C18.1147 2 17.3491 2.76555 17.3491 3.70991C17.3491 4.65427 18.1147 5.41983 19.059 5.41983Z" stroke="black" stroke-width="2" stroke-miterlimit="10"/>
<path d="M7.42438 20.2902H17.868C20.1567 20.2902 22.012 18.4349 22.012 16.1462C22.012 13.8576 20.1567 12.0023 17.868 12.0023H15.8035C13.5148 12.0023 11.6595 10.1469 11.6595 7.85827V7.8537C11.6595 5.56504 13.5148 3.70972 15.8035 3.70972H17.3524" stroke="black" stroke-width="2" stroke-miterlimit="10"/>
</svg>
