<svg width="172" height="50" viewBox="0 0 172 50" fill="none" xmlns="http://www.w3.org/2000/svg">
<path d="M165.079 1.00156C168.019 1.00156 170.411 3.35625 170.411 6.25V43.75C170.411 46.6438 168.019 48.9984 165.079 48.9984H6.34921C3.40952 48.9984 1.01746 46.6438 1.01746 43.75V6.25C1.01746 3.35625 3.40952 1.00156 6.34921 1.00156H165.079ZM165.079 0H6.34921C2.85873 0 0 2.81406 0 6.25V43.75C0 47.1859 2.85873 50 6.34921 50H165.079C168.57 50 171.429 47.1859 171.429 43.75V6.25C171.429 2.81406 168.57 0 165.079 0Z" fill="#A6A6A6"/>
</svg>
