<svg width="20" height="20" viewBox="0 0 20 20" fill="none" xmlns="http://www.w3.org/2000/svg">
<path d="M19.9602 14.9742V17.9851C19.9614 18.2646 19.9041 18.5413 19.7921 18.7974C19.6802 19.0535 19.5159 19.2834 19.31 19.4723C19.104 19.6613 18.8608 19.8051 18.5961 19.8947C18.3313 19.9842 18.0507 20.0175 17.7723 19.9923C14.684 19.6568 11.7175 18.6015 9.11104 16.9112C6.6861 15.3703 4.63018 13.3144 3.08928 10.8894C1.39313 8.27119 0.337579 5.29021 0.00814614 2.188C-0.016934 1.91047 0.0160496 1.63075 0.104996 1.36666C0.193943 1.10257 0.336905 0.859893 0.524779 0.654081C0.712653 0.44827 0.941323 0.283832 1.19623 0.171238C1.45114 0.0586434 1.7267 0.000359731 2.00536 9.73039e-05H5.01624C5.50331 -0.00469646 5.9755 0.167782 6.3448 0.485383C6.71411 0.802985 6.95533 1.24404 7.02349 1.72633C7.15058 2.68988 7.38626 3.63596 7.72603 4.54652C7.86106 4.90575 7.89029 5.29615 7.81024 5.67147C7.7302 6.04679 7.54424 6.3913 7.2744 6.66418L5.9998 7.93878C7.42851 10.4514 9.50893 12.5318 12.0216 13.9605L13.2962 12.6859C13.569 12.4161 13.9135 12.2301 14.2889 12.1501C14.6642 12.07 15.0546 12.0993 15.4138 12.2343C16.3244 12.5741 17.2705 12.8098 18.234 12.9368C18.7215 13.0056 19.1668 13.2512 19.4851 13.6268C19.8033 14.0025 19.9725 14.482 19.9602 14.9742Z" fill="white"/>
</svg>
