<svg width="108" height="22" viewBox="0 0 108 22" fill="none" xmlns="http://www.w3.org/2000/svg">
<path d="M34.5159 5.90155C31.5238 5.90155 29.0796 8.14304 29.0796 11.2357C29.0796 14.3032 31.5238 16.5682 34.5159 16.5682C37.5143 16.5682 39.9586 14.3032 39.9586 11.2357C39.9586 8.14304 37.5143 5.90155 34.5159 5.90155ZM34.5159 14.4678C32.8742 14.4678 31.4617 13.1339 31.4617 11.2357C31.4617 9.31237 32.8742 8.00196 34.5159 8.00196C36.1576 8.00196 37.5764 9.31237 37.5764 11.2357C37.5764 13.1339 36.1576 14.4678 34.5159 14.4678ZM22.6544 5.90155C19.656 5.90155 17.2181 8.14304 17.2181 11.2357C17.2181 14.3032 19.656 16.5682 22.6544 16.5682C25.6512 16.5682 28.0907 14.3032 28.0907 11.2357C28.0907 8.14304 25.6512 5.90155 22.6544 5.90155ZM22.6544 14.4678C21.0111 14.4678 19.5939 13.1339 19.5939 11.2357C19.5939 9.31237 21.0111 8.00196 22.6544 8.00196C24.2961 8.00196 25.7086 9.31237 25.7086 11.2357C25.7086 13.1339 24.2961 14.4678 22.6544 14.4678ZM8.5398 7.53642V9.80299H14.0382C13.8774 11.0695 13.4474 12.0006 12.7882 12.6495C11.9857 13.4333 10.7357 14.3032 8.5398 14.3032C5.15604 14.3032 2.50636 11.615 2.50636 8.28411C2.50636 4.95323 5.15604 2.26501 8.5398 2.26501C10.3694 2.26501 11.7006 2.9688 12.6831 3.88107L14.3057 2.28381C12.9315 0.992214 11.1035 2.39178e-06 8.5398 2.39178e-06C3.89968 2.39178e-06 0 3.71649 0 8.28411C0 12.8517 3.89968 16.5682 8.5398 16.5682C11.0478 16.5682 12.9315 15.7594 14.4124 14.2421C15.9299 12.7483 16.4028 10.6479 16.4028 8.95185C16.4028 8.42518 16.3583 7.94083 16.2786 7.53642H8.5398ZM66.2563 9.29356C65.8088 8.10071 64.4283 5.90155 61.6162 5.90155C58.8296 5.90155 56.5095 8.06309 56.5095 11.2357C56.5095 14.2233 58.8057 16.5682 61.8837 16.5682C64.3725 16.5682 65.8088 15.0744 66.3996 14.2045L64.5525 12.9928C63.9362 13.88 63.0971 14.4678 61.8837 14.4678C60.6783 14.4678 59.8136 13.9239 59.2595 12.8517L66.5063 9.90017L66.2563 9.29356ZM58.8678 11.0695C58.8057 9.01298 60.4904 7.95964 61.6974 7.95964C62.6432 7.95964 63.4458 8.42518 63.7133 9.09136L58.8678 11.0695ZM52.9776 16.2437H55.3598V0.568997H52.9776V16.2437ZM49.0764 7.08969H48.9968C48.4617 6.46584 47.441 5.90155 46.148 5.90155C43.4347 5.90155 40.9538 8.24649 40.9538 11.2529C40.9538 14.2421 43.4347 16.5682 46.148 16.5682C47.441 16.5682 48.4617 15.9992 48.9968 15.3566H49.0764V16.1215C49.0764 18.1608 47.9697 19.2564 46.1847 19.2564C44.7292 19.2564 43.8264 18.2219 43.4538 17.3519L41.3821 18.2031C41.9793 19.6169 43.5605 21.3568 46.1847 21.3568C48.9776 21.3568 51.3343 19.7392 51.3343 15.8033V6.22601H49.0764V7.08969ZM46.3519 14.4678C44.7101 14.4678 43.3359 13.1151 43.3359 11.2529C43.3359 9.3735 44.7101 8.00196 46.3519 8.00196C47.9697 8.00196 49.2452 9.3735 49.2452 11.2529C49.2452 13.1151 47.9697 14.4678 46.3519 14.4678ZM77.4091 0.568997H71.7117V16.2437H74.0875V10.3046H77.4091C80.0477 10.3046 82.6353 8.42518 82.6353 5.43601C82.6353 2.4484 80.0413 0.568997 77.4091 0.568997ZM77.4713 8.12422H74.0875V2.74936H77.4713C79.2451 2.74936 80.2579 4.19927 80.2579 5.43601C80.2579 6.64923 79.2451 8.12422 77.4713 8.12422ZM92.1575 5.87176C90.441 5.87176 88.6559 6.61788 87.9219 8.27157L90.0302 9.14152C90.484 8.27157 91.3184 7.98942 92.2005 7.98942C93.433 7.98942 94.683 8.7183 94.7021 10.0052V10.1698C94.2722 9.92525 93.3518 9.56317 92.2196 9.56317C89.9489 9.56317 87.6353 10.7936 87.6353 13.09C87.6353 15.1904 89.4951 16.5431 91.5859 16.5431C93.1846 16.5431 94.0668 15.8331 94.6209 15.007H94.7021V16.2187H96.9967V10.2058C96.9967 7.4267 94.8884 5.87176 92.1575 5.87176ZM91.8709 14.4615C91.0938 14.4615 90.0111 14.0822 90.0111 13.1339C90.0111 11.9206 91.3614 11.4551 92.5302 11.4551C93.5763 11.4551 94.0668 11.6824 94.7021 11.9818C94.5158 13.4333 93.2467 14.4615 91.8709 14.4615ZM105.357 6.21504L102.626 13.01H102.544L99.7212 6.21504H97.1591L101.401 15.7108L98.9808 20.9948H101.463L108 6.21504H105.357ZM83.941 16.2437H86.3232V0.568997H83.941V16.2437Z" fill="white"/>
</svg>
