<svg width="22" height="22" viewBox="0 0 22 22" fill="none" xmlns="http://www.w3.org/2000/svg">
<path d="M20.9565 15.9722V18.982C20.9576 19.2614 20.9004 19.538 20.7885 19.794C20.6765 20.05 20.5123 20.2799 20.3064 20.4687C20.1006 20.6576 19.8575 20.8014 19.5928 20.891C19.3281 20.9805 19.0476 21.0137 18.7694 20.9886C15.6821 20.6531 12.7166 19.5982 10.1111 17.9085C7.68702 16.3682 5.63183 14.313 4.09147 11.8889C2.39591 9.27155 1.34073 6.29162 1.01142 3.19051C0.986345 2.91307 1.01932 2.63345 1.10823 2.36945C1.19715 2.10545 1.34006 1.86286 1.52787 1.65712C1.71568 1.45139 1.94426 1.28701 2.19908 1.17445C2.4539 1.0619 2.72936 1.00363 3.00793 1.00337H6.01775C6.50465 0.998578 6.97667 1.171 7.34585 1.48849C7.71502 1.80598 7.95615 2.24687 8.0243 2.729C8.15133 3.69221 8.38693 4.63796 8.72659 5.5482C8.86157 5.90729 8.89079 6.29756 8.81077 6.67275C8.73075 7.04794 8.54486 7.39233 8.27511 7.66511L7.00096 8.93926C8.42917 11.451 10.5089 13.5307 13.0206 14.9589L14.2948 13.6847C14.5675 13.415 14.9119 13.2291 15.2871 13.1491C15.6623 13.0691 16.0526 13.0983 16.4117 13.2333C17.3219 13.5729 18.2677 13.8085 19.2309 13.9356C19.7182 14.0043 20.1633 14.2498 20.4815 14.6253C20.7996 15.0008 20.9687 15.4802 20.9565 15.9722Z" stroke="white" stroke-width="2" stroke-linecap="round" stroke-linejoin="round"/>
</svg>
