<svg width="50" height="9" viewBox="0 0 50 9" fill="none" xmlns="http://www.w3.org/2000/svg">
<path d="M7.87518 4.36454C7.87518 5.41818 7.55471 6.26205 6.92338 6.8914C6.19751 7.63747 5.25213 8.01287 4.09362 8.01287C2.9864 8.01287 2.041 7.63116 1.26546 6.87878C0.48832 6.11536 0.100554 5.17843 0.100554 4.05696C0.100554 2.93549 0.48832 1.99856 1.26546 1.24145C2.041 0.482759 2.9864 0.101047 4.09362 0.101047C4.64483 0.101047 5.1704 0.213037 5.67194 0.421242C6.17187 0.631026 6.57887 0.914943 6.8737 1.26511L6.20392 1.93074C5.68956 1.33293 4.98934 1.03797 4.09362 1.03797C3.28604 1.03797 2.58581 1.31558 1.99133 1.87553C1.40327 2.43705 1.10843 3.1642 1.10843 4.05696C1.10843 4.94972 1.40327 5.68317 1.99133 6.2447C2.58581 6.79834 3.28604 7.08225 4.09362 7.08225C4.95088 7.08225 5.67194 6.79834 6.24078 6.23839C6.61573 5.86772 6.82884 5.35667 6.88493 4.70366H4.09362V3.79197H7.81749C7.86236 3.98913 7.87518 4.17999 7.87518 4.36454Z" fill="white" stroke="white" stroke-width="0.16" stroke-miterlimit="10"/>
<path d="M13.7835 1.20359H10.2856V3.60112H13.439V4.5128H10.2856V6.91033H13.7835V7.83937H9.29533V0.274552H13.7835V1.20359Z" fill="white" stroke="white" stroke-width="0.16" stroke-miterlimit="10"/>
<path d="M17.9527 7.83937H16.9625V1.20359H14.8169V0.274552H20.0999V1.20359H17.9527V7.83937Z" fill="white" stroke="white" stroke-width="0.16" stroke-miterlimit="10"/>
<path d="M23.923 7.83937V0.274552H24.9116V7.83937H23.923Z" fill="white" stroke="white" stroke-width="0.16" stroke-miterlimit="10"/>
<path d="M29.2946 7.83937H28.3124V1.20359H26.1588V0.274552H31.4482V1.20359H29.2946V7.83937Z" fill="white" stroke="white" stroke-width="0.16" stroke-miterlimit="10"/>
<path d="M41.4495 6.86616C40.6916 7.63116 39.7526 8.01287 38.6326 8.01287C37.5061 8.01287 36.5671 7.63116 35.8092 6.86616C35.0529 6.10274 34.6764 5.16581 34.6764 4.05696C34.6764 2.94811 35.0529 2.01118 35.8092 1.24776C36.5671 0.482758 37.5061 0.101047 38.6326 0.101047C39.7462 0.101047 40.6852 0.482758 41.4431 1.25407C42.2058 2.0238 42.5824 2.95441 42.5824 4.05696C42.5824 5.16581 42.2058 6.10274 41.4495 6.86616ZM36.5415 6.23208C37.1119 6.79834 37.8057 7.08225 38.6326 7.08225C39.453 7.08225 40.1532 6.79834 40.7172 6.23208C41.2861 5.66582 41.5745 4.93868 41.5745 4.05696C41.5745 3.17524 41.2861 2.4481 40.7172 1.88184C40.1532 1.31558 39.453 1.03166 38.6326 1.03166C37.8057 1.03166 37.1119 1.31558 36.5415 1.88184C35.9727 2.4481 35.6842 3.17524 35.6842 4.05696C35.6842 4.93868 35.9727 5.66582 36.5415 6.23208Z" fill="white" stroke="white" stroke-width="0.16" stroke-miterlimit="10"/>
<path d="M43.9717 7.83937V0.274552H45.1735L48.9101 6.15795H48.9534L48.9101 4.70366V0.274552H49.8988V7.83937H48.8669L44.9539 1.66575H44.9107L44.9539 3.12634V7.83937H43.9717Z" fill="white" stroke="white" stroke-width="0.16" stroke-miterlimit="10"/>
</svg>
